<?xml version="1.0" standalone="yes"?>
<!DOCTYPE svg PUBLIC "-//W3C//DTD SVG 1.1//EN"
 "http://www.w3.org/Graphics/SVG/1.1/DTD/svg11.dtd">
<svg xmlns="http://www.w3.org/2000/svg" version="1.1"
  width="100%" height="100%" viewBox="0 0 512 384"
  style="fill: none; font-family: Helvetica;
 font: Helvetica;
">

<!-- Creator: NGspice -->

<rect x="0" y="0" width="512" height="384" fill="black" stroke="none"/>
<text stroke="none" fill="white" font-size="14" x="179" y="370">
time
</text>
<text stroke="none" fill="white" font-size="14" x="9" y="14">
tran1: oscillating bones output
</text>
<path stroke="white" d="M45 328l0 -270"/>
<text stroke="none" fill="white" font-size="14" x="32" y="349">
0.0
</text>
<path stroke="white" stroke-dasharray="1,2" d="M150 328l0 -270"/>
<text stroke="none" fill="white" font-size="14" x="132" y="349">
20.0
</text>
<path stroke="white" stroke-dasharray="1,2" d="M255 328l0 -270"/>
<text stroke="none" fill="white" font-size="14" x="237" y="349">
40.0
</text>
<path stroke="white" stroke-dasharray="1,2" d="M360 328l0 -270"/>
<text stroke="none" fill="white" font-size="14" x="342" y="349">
60.0
</text>
<path stroke="white" stroke-dasharray="1,2" d="M465 328l0 -270"/>
<text stroke="none" fill="white" font-size="14" x="447" y="349">
80.0
</text>
<text stroke="none" fill="white" font-size="14" x="307" y="370">
ns
</text>
<path stroke="white" stroke-dasharray="1,2" d="M45 328l420 0"/>
<text stroke="none" fill="white" font-size="14" x="7" y="335">
-2.0
</text>
<path stroke="white" d="M45 274l420 0"/>
<text stroke="none" fill="white" font-size="14" x="16" y="281">
0.0
</text>
<path stroke="white" stroke-dasharray="1,2" d="M45 220l420 0"/>
<text stroke="none" fill="white" font-size="14" x="16" y="227">
2.0
</text>
<path stroke="white" stroke-dasharray="1,2" d="M45 166l420 0"/>
<text stroke="none" fill="white" font-size="14" x="16" y="173">
4.0
</text>
<path stroke="white" stroke-dasharray="1,2" d="M45 112l420 0"/>
<text stroke="none" fill="white" font-size="14" x="16" y="119">
6.0
</text>
<path stroke="white" stroke-dasharray="1,2" d="M45 58l420 0"/>
<text stroke="none" fill="white" font-size="14" x="16" y="65">
8.0
</text>
<text stroke="none" fill="white" font-size="14" x="9" y="28">
     
</text>
<path stroke="red" d="M210 20l21 0"/>
<text stroke="none" fill="white" font-size="14" x="240" y="28">
"uo_out[0]"
</text>
<path stroke="red" d="M45 261l6 0M51 262l0 -1M51 262l1 0M52 270l0 -8M52 270l1 2M53 274l0 -2M53 274l8 0M61 276l0 -2M61 276l1 -1 0 -15 1 -4 0 -6 1 -2 0 -5 1 0 0 -1 12 0 0 -2 1 1M78 267l0 -26M78 267l1 6M79 274l0 -1M79 274l14 0M93 276l0 -2M93 276l1 -2"/>
<path stroke="red" d="M94 274l0 -15 1 -3 0 -8 1 -2 0 -3 1 -1 12 0 0 -2M109 242l1 5M110 268l0 -21M110 268l1 5M111 274l0 -1M111 274l14 0M125 276l0 -2 1 -4 0 -15 1 -3 0 -6 1 -2 0 -2 12 0 1 -1M141 242l0 -2M141 242l1 6M142 273l0 -25M142 273l1 0M143 274l0 -1"/>
<path stroke="red" d="M143 274l13 0 1 1M157 276l0 -7 1 -5 0 -12 1 -3 0 -5 1 -1 0 -1 12 0 1 -1M173 248l0 -8M173 248l1 10M174 273l0 -15M174 273l1 1 13 0M188 275l0 -1M188 275l1 1 0 -13 1 -4 0 -10 1 -1 0 -4 1 -1 0 -1 12 0 0 -1 1 -1M205 258l0 -18"/>
<path stroke="red" d="M205 258l1 10M206 274l0 -6M206 274l14 0M220 275l0 -1M220 275l1 1 0 -13 1 -4 0 -10 1 -1 0 -5 1 -1 12 0 0 -2 1 2M237 268l0 -26M237 268l1 5M238 274l0 -1M238 274l14 0M252 276l0 -2M252 276l1 -2 0 -15 1 -4 0 -8 1 -2 0 -3 13 0"/>
<path stroke="red" d="M268 242l0 -2M268 242l1 6M269 273l0 -25M269 273l1 0M270 274l0 -1M270 274l14 0M284 276l0 -2 1 -5 0 -14 1 -4 0 -6 1 -1 0 -2 12 0 1 -1M300 248l0 -8M300 248l1 11M301 273l0 -14M301 273l1 0M302 274l0 -1M302 274l13 0 1 1M316 276l0 -7"/>
<path stroke="red" d="M316 269l1 -5 0 -12 1 -3 0 -5 1 -1 0 -1 12 0 0 -1 1 -1M332 247l0 -7M332 247l1 11M333 273l0 -15M333 273l1 1 13 0M347 275l0 -1M347 275l1 1 0 -12 1 -5 0 -10 1 -1 0 -5 1 0 0 -1 12 0 0 -1 1 -1M364 258l0 -18M364 258l1 10M365 274l0 -6"/>
<path stroke="red" d="M365 274l14 0M379 276l0 -2M379 276l1 -2 0 -15 1 -4 0 -6 1 -1 0 -5 1 -1 12 0 0 -2 1 2M396 268l0 -26M396 268l1 5M397 274l0 -1M397 274l14 0M411 276l0 -2 1 -5 0 -10 1 -4 0 -7 1 -3 0 -3 13 0 0 -2M427 242l1 6M428 273l0 -25M428 273l1 0"/>
<path stroke="red" d="M429 274l0 -1M429 274l14 0M443 276l0 -2 1 -5 0 -14 1 -4 0 -6 1 -1 0 -2 12 0 1 -1M459 248l0 -8M459 248l1 11M460 273l0 -14M460 273l1 1 4 0"/>
<path stroke="blue" d="M45 20l21 0"/>
<text stroke="none" fill="white" font-size="14" x="75" y="28">
"uo_out[1]"+2
</text>
<path stroke="blue" d="M45 220l19 0M64 221l0 -16 1 -16 0 -1 30 0 1 -1M96 221l0 -34M96 221l1 -2M97 221l0 -2M97 220l30 0 1 1 0 -33 1 -1M129 188l0 -1M129 188l1 -1M130 188l0 -1 1 1 28 0M159 200l0 -13M159 200l1 19M160 220l0 -1M160 220l31 0 1 -21 0 -12"/>
<path stroke="blue" d="M192 187l1 1 0 -1 1 1 0 -1 1 1 28 0M223 219l0 -32M223 219l1 1 31 0 0 -33 1 2 0 -2 1 1 0 -1 1 1 0 -1M258 188l28 0 0 -1 1 16M287 220l0 -17M287 220l31 0 1 -19 0 -14 1 1 0 -1M320 188l1 -1M321 188l0 -1M321 188l1 -1M322 188l0 -1"/>
<path stroke="blue" d="M322 188l28 0M350 219l0 -32M350 219l1 1 31 0 0 -22 1 -11M383 188l0 -1M383 188l1 -1M384 188l0 -1M384 188l1 -1M385 188l0 -1M385 188l28 0 1 -1M414 220l0 -33M414 220l32 0 0 -33M446 189l1 -2M447 188l0 -1M447 188l1 -1M448 188l0 -1"/>
<path stroke="blue" d="M448 188l1 -1M449 188l0 -1M449 188l16 0"/>
<path stroke="#FFA500" d="M210 34l21 0"/>
<text stroke="none" fill="white" font-size="14" x="240" y="42">
"uo_out[2]"+4
</text>
<path stroke="#FFA500" d="M45 166l20 0 1 -10 0 -23M66 134l1 -1M67 134l0 -1M67 134l61 0 1 -1M129 167l0 -34M129 167l1 -2M130 167l0 -2 1 2 0 -2M131 166l62 0 0 -33M193 134l1 -1M194 134l0 -1M194 134l1 -1M195 134l0 -1M195 134l61 0M256 164l0 -31M256 164l1 3"/>
<path stroke="#FFA500" d="M257 167l0 -2M257 166l63 0 0 -32 1 0 0 -1 1 1 0 -1 1 1 60 0M383 143l0 -10M383 143l1 21M384 167l0 -3M384 167l1 -1 62 0 0 -33 1 2 0 -2 1 1 0 -1 1 1 15 0"/>
<path stroke="green" d="M45 34l21 0"/>
<text stroke="none" fill="white" font-size="14" x="75" y="42">
"uo_out[3]"+6
</text>
<path stroke="green" d="M45 112l22 0 0 -33 1 1 0 -1 1 1 0 -1M69 80l124 0 1 -1M194 113l0 -34M194 113l1 -2M195 113l0 -2M195 113l1 -2M196 112l0 -1M196 112l125 0 0 -16 1 -16 0 -1M322 80l126 0M448 111l0 -32M448 111l1 2 0 -2M449 112l16 0"/>
</svg>
